<svg width="35" height="35" fill="none" xmlns="http://www.w3.org/2000/svg">
  <path d="M17.336 34.515c9.574 0 17.336-7.642 17.336-17.069S26.91.377 17.336.377C7.762.377 0 8.019 0 17.447c0 9.426 7.762 17.068 17.336 17.068z"
    fill="#00B346" />
  <path fill-rule="evenodd" clip-rule="evenodd" d="M15.328 9.173c1.599.376 3.17.746 4.742 1.22 3.72 1.076 5.797 3.769 5.688 7.43 0 .97-.164 1.884-.438 2.8-1.367 4.254-4.976 6.354-9.46 5.438a115.34 115.34 0 0 1-3.597-.852c-1.02-.255-2.042-.515-3.076-.763-.328-.108-.601-.215-.382-.646.054-.108.054-.216.054-.323.164-.673.246-1.01.459-1.15.212-.142.554-.088 1.237.02.601.107.984-.109 1.148-.647.18-.71.36-1.403.54-2.089l.444-1.68c.11-.377-.054-.431-.328-.485-.35-.073-.7-.159-1.05-.245-.415-.102-.831-.205-1.247-.293-.492-.108-.601-.324-.437-.754a.984.984 0 0 0 .11-.377c.109-.592.273-.808.93-.592.71.215 1.42.323 2.132.538.328.108.492 0 .601-.377l.657-2.584c.273-1.131.054-1.454-1.04-1.67-.765-.161-.874-.43-.656-1.13.383-1.4.383-1.4 1.75-1.077l1.219.288zm-.07 14.304c1.422.646 3.336.377 4.484-.754 1.586-1.507 2.242-3.446 2.297-5.169 0-3.07-1.203-4.577-3.937-5.277-.493-.108-.602 0-.711.431-.089.376-.193.753-.296 1.13a27.22 27.22 0 0 0-.251.97c-.218.911-.327 1.369-.153 1.651.176.286.64.394 1.575.61.027 0 .068.014.109.027.041.013.082.027.11.027.742.197 1.037.188 1.103.357.06.155-.072.459-.229 1.205-.026.156-.078.262-.167.317-.096.06-.236.061-.434.006-.46-.162-.92-.265-1.379-.369a17.944 17.944 0 0 1-.918-.223c-.21-.06-.338-.07-.429-.004-.074.053-.123.157-.173.327-.164.673-.328 1.332-.492 1.992-.164.66-.328 1.319-.492 1.992-.11.377 0 .592.383.754z"
    fill="#FEFEFE" />
</svg>
