<svg width="64" height="65" fill="none" xmlns="http://www.w3.org/2000/svg">
  <path fill-rule="evenodd" clip-rule="evenodd" d="M63.4 32.5c0 17.508-14.193 31.7-31.7 31.7C14.192 64.2 0 50.008 0 32.5 0 14.993 14.192.8 31.7.8c17.507 0 31.7 14.193 31.7 31.7zM23.124 16.306l-.023-.006a.36.36 0 0 0-.056.06l.015-.008.064-.046zm.205.055l-.205-.055.276-.206-.07.261zm0 0c.474.124.948.231 1.422.339.55.125 1.1.25 1.65.4 1.099.3 2.2.5 3.3.8.299.1.4 0 .5-.3.2-.85.399-1.673.599-2.497.2-.826.4-1.652.6-2.503.1-.3.2-.4.5-.3a25.11 25.11 0 0 0 1.527.405c.45.106.9.2 1.374.295.11.036.178.073.218.114.068.072.044.159-.019.286-.4 1.6-.8 3.3-1.2 4.9 0 .045 0 .09-.008.144a.78.78 0 0 1-.044.151 1.245 1.245 0 0 1-.048.105c.389.097.802.194 1.215.292l.19.044.48.114.28.067.335.083c.035 0 .07-.024.106-.06.032-.033.063-.076.094-.118l.033-.044A.856.856 0 0 1 36.5 19c.082-.354.164-.7.247-1.043.068-.28.138-.557.21-.834.164-.633.34-1.265.543-1.923l.3-1.2c0-.078.016-.141.047-.183a.136.136 0 0 1 .113-.056.32.32 0 0 1 .14.039c.57.17 1.14.31 1.727.452.445.108.9.219 1.373.348.051 0 .076.025.102.05l.014.015c.02.019.044.035.084.035l-.126.542c-.14.595-.279 1.17-.42 1.738L40.5 18.4c-.1.5-.2 1-.4 1.5-.1.3 0 .4.3.5l3.3 1.5c1 .6 1.9 1.4 2.6 2.4.9 1.5 1 3.1.6 4.7-.3 1.1-.7 2.1-1.5 2.9-.6.6-1.4 1-2.2 1.3a.366.366 0 0 0-.132.037c-.068.029-.15.063-.267.063.094.071.19.137.284.2.093.06.185.119.278.177.212.133.425.264.637.423 1.2.9 2 2 2.4 3.4a6.679 6.679 0 0 1 .102 1.028A8.416 8.416 0 0 1 46.2 40.9c-.4 1.4-.9 2.6-1.8 3.7-1.1 1.3-2.5 2-4.1 2.2-2.1.3-4.1.1-6.1-.2-.3-.1-.5 0-.6.3-.4 1.6-.8 3.3-1.2 4.9l-.011.05c-.05.196-.078.31-.171.34-.077.027-.2-.003-.417-.09-.9-.2-1.9-.5-2.801-.7-.3-.1-.3-.2-.2-.4.4-1.7.8-3.4 1.3-5 0-.056.008-.104.015-.146.018-.11.03-.182-.115-.254-.337-.084-.674-.169-1.019-.253A72.09 72.09 0 0 0 27.5 45c-.042.19-.089.378-.138.568-.067.26-.14.521-.212.782-.125.45-.25.9-.35 1.35-.046.21-.098.42-.154.631-.062.24-.128.48-.195.719-.125.45-.25.9-.35 1.35-.101.2-.101.3-.4.2-1-.3-2-.5-3-.7-.3-.1-.3-.2-.201-.4.083-.354.166-.709.251-1.062.152-.637.307-1.271.47-1.896.18-.694.372-1.376.58-2.042a.35.35 0 0 1 .037-.131.657.657 0 0 0 .062-.27l-.064-.015-.062-.016a846.26 846.26 0 0 0-5.363-1.387l-1.51-.381c.2-.4.3-.7.5-1.1.4-.9.8-1.8 1.099-2.6.1-.3.2-.3.5-.3.7.2 1.5.4 2.2.5.8.2 1.4-.2 1.5-.9.598-2.344 1.195-4.688 1.783-7.04.33-1.324.658-2.651.98-3.983.352-1.452.7-2.91 1.037-4.377.2-.8-.3-1.7-1.2-2-.9-.3-1.8-.5-2.6-.7a.308.308 0 0 1-.182-.046.136.136 0 0 1-.052-.073c-.013-.046-.003-.107.034-.181.083-.303.165-.614.247-.927l.2-.763.011-.042c.124-.474.247-.947.371-1.407zm4.871 24.64c.04 0 .08.015.114.035.05.028.086.064.086.064l.501.127.255.066c1.375.354 2.81.723 4.244.807 1.2.1 2.3.1 3.4-.3 1.9-.6 2.7-3.1 1.6-4.7a3.5 3.5 0 0 0-.449-.572 4.206 4.206 0 0 0-.184-.181c-.436-.402-.952-.725-1.467-1.047-1.747-.97-3.777-1.376-5.724-1.765L30.4 33.5c-.3-.1-.3 0-.4.3-.1.5-.225.975-.35 1.45-.072.276-.144.552-.212.833-.05.203-.096.408-.138.617-.23.81-.428 1.619-.631 2.447A93.8 93.8 0 0 1 28.2 41zM37.7 30.6c-.4.1-.9.2-1.1.2-1.6 0-2.9-.3-4.4-.5-.199-.05-.374-.1-.548-.15-.175-.05-.351-.1-.552-.15-.117-.058-.199-.116-.228-.194-.021-.056-.015-.122.027-.206.601-2.1 1.101-4.1 1.601-6.2.1-.3.2-.4.5-.3.297.08.59.155.88.23 1.175.3 2.297.589 3.42 1.07.9.4 1.8 1 2.3 1.9 1 1.7 0 3.9-1.9 4.3z"
    fill="#F5B300" />
  <path fill-rule="evenodd" clip-rule="evenodd" d="M63.4 32.5c0 17.508-14.193 31.7-31.7 31.7C14.192 64.2 0 50.008 0 32.5 0 14.993 14.192.8 31.7.8c17.507 0 31.7 14.193 31.7 31.7zM23.124 16.306l-.023-.006a.36.36 0 0 0-.056.06l.015-.008.064-.046zm.205.055l-.205-.055.276-.206-.07.261zm0 0c.474.124.948.231 1.422.339.55.125 1.1.25 1.65.4 1.099.3 2.2.5 3.3.8.299.1.4 0 .5-.3.2-.85.399-1.673.599-2.497.2-.826.4-1.652.6-2.503.1-.3.2-.4.5-.3a25.11 25.11 0 0 0 1.527.405c.45.106.9.2 1.374.295.11.036.178.073.218.114.068.072.044.159-.019.286-.4 1.6-.8 3.3-1.2 4.9 0 .045 0 .09-.008.144a.78.78 0 0 1-.044.151 1.245 1.245 0 0 1-.048.105c.389.097.802.194 1.215.292l.19.044.48.114.28.067.335.083c.035 0 .07-.024.106-.06.032-.033.063-.076.094-.118l.033-.044A.856.856 0 0 1 36.5 19c.082-.354.164-.7.247-1.043.068-.28.138-.557.21-.834.164-.633.34-1.265.543-1.923l.3-1.2c0-.078.016-.141.047-.183a.136.136 0 0 1 .113-.056.32.32 0 0 1 .14.039c.57.17 1.14.31 1.727.452.445.108.9.219 1.373.348.051 0 .076.025.102.05l.014.015c.02.019.044.035.084.035l-.126.542c-.14.595-.279 1.17-.42 1.738L40.5 18.4c-.1.5-.2 1-.4 1.5-.1.3 0 .4.3.5l3.3 1.5c1 .6 1.9 1.4 2.6 2.4.9 1.5 1 3.1.6 4.7-.3 1.1-.7 2.1-1.5 2.9-.6.6-1.4 1-2.2 1.3a.366.366 0 0 0-.132.037c-.068.029-.15.063-.267.063.094.071.19.137.284.2.093.06.185.119.278.177.212.133.425.264.637.423 1.2.9 2 2 2.4 3.4a6.679 6.679 0 0 1 .102 1.028A8.416 8.416 0 0 1 46.2 40.9c-.4 1.4-.9 2.6-1.8 3.7-1.1 1.3-2.5 2-4.1 2.2-2.1.3-4.1.1-6.1-.2-.3-.1-.5 0-.6.3-.4 1.6-.8 3.3-1.2 4.9l-.011.05c-.05.196-.078.31-.171.34-.077.027-.2-.003-.417-.09-.9-.2-1.9-.5-2.801-.7-.3-.1-.3-.2-.2-.4.4-1.7.8-3.4 1.3-5 0-.056.008-.104.015-.146.018-.11.03-.182-.115-.254-.337-.084-.674-.169-1.019-.253A72.09 72.09 0 0 0 27.5 45c-.042.19-.089.378-.138.568-.067.26-.14.521-.212.782-.125.45-.25.9-.35 1.35-.046.21-.098.42-.154.631-.062.24-.128.48-.195.719-.125.45-.25.9-.35 1.35-.101.2-.101.3-.4.2-1-.3-2-.5-3-.7-.3-.1-.3-.2-.201-.4.083-.354.166-.709.251-1.062.152-.637.307-1.271.47-1.896.18-.694.372-1.376.58-2.042a.35.35 0 0 1 .037-.131.657.657 0 0 0 .062-.27l-.064-.015-.062-.016a846.26 846.26 0 0 0-5.363-1.387l-1.51-.381c.2-.4.3-.7.5-1.1.4-.9.8-1.8 1.099-2.6.1-.3.2-.3.5-.3.7.2 1.5.4 2.2.5.8.2 1.4-.2 1.5-.9.598-2.344 1.195-4.688 1.783-7.04.33-1.324.658-2.651.98-3.983.352-1.452.7-2.91 1.037-4.377.2-.8-.3-1.7-1.2-2-.9-.3-1.8-.5-2.6-.7a.308.308 0 0 1-.182-.046.136.136 0 0 1-.052-.073c-.013-.046-.003-.107.034-.181.083-.303.165-.614.247-.927l.2-.763.011-.042c.124-.474.247-.947.371-1.407zm4.871 24.64c.04 0 .08.015.114.035.05.028.086.064.086.064l.501.127.255.066c1.375.354 2.81.723 4.244.807 1.2.1 2.3.1 3.4-.3 1.9-.6 2.7-3.1 1.6-4.7a3.5 3.5 0 0 0-.449-.572 4.206 4.206 0 0 0-.184-.181c-.436-.402-.952-.725-1.467-1.047-1.747-.97-3.777-1.376-5.724-1.765L30.4 33.5c-.3-.1-.3 0-.4.3-.1.5-.225.975-.35 1.45-.072.276-.144.552-.212.833-.05.203-.096.408-.138.617-.23.81-.428 1.619-.631 2.447A93.8 93.8 0 0 1 28.2 41zM37.7 30.6c-.4.1-.9.2-1.1.2-1.6 0-2.9-.3-4.4-.5-.199-.05-.374-.1-.548-.15-.175-.05-.351-.1-.552-.15-.117-.058-.199-.116-.228-.194-.021-.056-.015-.122.027-.206.601-2.1 1.101-4.1 1.601-6.2.1-.3.2-.4.5-.3.297.08.59.155.88.23 1.175.3 2.297.589 3.42 1.07.9.4 1.8 1 2.3 1.9 1 1.7 0 3.9-1.9 4.3z"
    fill="#F5B300" />
</svg>
