
<svg width="84px" height="14px" viewBox="0 0 84 14" version="1.1" xmlns="http://www.w3.org/2000/svg" xmlns:xlink="http://www.w3.org/1999/xlink">
    <!-- Generator: Sketch 50.2 (55047) - http://www.bohemiancoding.com/sketch -->
    <desc>Created with Sketch.</desc>
    <defs></defs>
    <g id="Page-1" stroke="none" stroke-width="1" fill="none" fill-rule="evenodd">
        <g id="head" transform="translate(-1013.000000, -433.000000)" fill="#32325D">
            <g id="Group-5" transform="translate(1013.000000, 433.000000)">
                <path d="M7.88598633,8.76660156 L7.88598633,11.7797852 C7.88598633,12.255699 7.77807725,12.612629 7.56225586,12.8505859 C7.34643447,13.0885429 7.06144383,13.2075195 6.70727539,13.2075195 C6.36417472,13.2075195 6.08610133,13.0885429 5.87304688,12.8505859 C5.65999242,12.612629 5.5534668,12.255699 5.5534668,11.7797852 L5.5534668,8.16894531 C5.5534668,7.59895548 5.5340985,7.15625158 5.49536133,6.84082031 C5.45662416,6.52538905 5.35148198,6.26668395 5.17993164,6.06469727 C5.0083813,5.86271058 4.73722516,5.76171875 4.36645508,5.76171875 C3.62491491,5.76171875 3.13655717,6.0162735 2.90136719,6.52539062 C2.66617721,7.03450775 2.54858398,7.7649692 2.54858398,8.71679688 L2.54858398,11.7797852 C2.54858398,12.2501651 2.44205836,12.6057117 2.22900391,12.8464355 C2.01594946,13.0871594 1.73510917,13.2075195 1.38647461,13.2075195 C1.04337394,13.2075195 0.762533645,13.0871594 0.543945312,12.8464355 C0.32535698,12.6057117 0.216064453,12.2501651 0.216064453,11.7797852 L0.216064453,5.296875 C0.216064453,4.8707661 0.314289382,4.54703887 0.510742188,4.32568359 C0.707194993,4.10432832 0.965900088,3.99365234 1.28686523,3.99365234 C1.59676262,3.99365234 1.85546771,4.09741107 2.06298828,4.30493164 C2.27050885,4.51245221 2.37426758,4.7988263 2.37426758,5.1640625 L2.37426758,5.37988281 C2.76717319,4.90950286 3.1877419,4.56364043 3.63598633,4.34228516 C4.08423076,4.12092988 4.58227265,4.01025391 5.13012695,4.01025391 C5.70011678,4.01025391 6.18985798,4.12369678 6.59936523,4.35058594 C7.00887249,4.57747509 7.34643422,4.92057062 7.61206055,5.37988281 C7.99389839,4.91503674 8.40339951,4.57055776 8.84057617,4.34643555 C9.27775284,4.12231333 9.76196023,4.01025391 10.2932129,4.01025391 C10.9130077,4.01025391 11.4470192,4.13199748 11.8952637,4.37548828 C12.3435081,4.61897908 12.6783029,4.96760841 12.8996582,5.42138672 C13.0933441,5.83089397 13.1901855,6.47558154 13.1901855,7.35546875 L13.1901855,11.7797852 C13.1901855,12.255699 13.0822765,12.612629 12.8664551,12.8505859 C12.6506337,13.0885429 12.365643,13.2075195 12.0114746,13.2075195 C11.6683739,13.2075195 11.3875336,13.0871594 11.1689453,12.8464355 C10.950357,12.6057117 10.8410645,12.2501651 10.8410645,11.7797852 L10.8410645,7.96972656 C10.8410645,7.48274496 10.8203127,7.09261214 10.7788086,6.79931641 C10.7373045,6.50602067 10.6252451,6.25976662 10.442627,6.06054688 C10.2600089,5.86132713 9.98331891,5.76171875 9.61254883,5.76171875 C9.31371921,5.76171875 9.03011202,5.85025953 8.76171875,6.02734375 C8.49332548,6.20442797 8.28442458,6.44238132 8.13500977,6.74121094 C7.96899331,7.12304878 7.88598633,7.79817224 7.88598633,8.76660156 Z M21.2751465,11.9291992 L21.2751465,11.6386719 C21.0039863,11.9817725 20.7189956,12.2695301 20.420166,12.5019531 C20.1213364,12.7343762 19.7948423,12.9073074 19.4406738,13.020752 C19.0865054,13.1341965 18.6825381,13.190918 18.2287598,13.190918 C17.6809055,13.190918 17.1897808,13.0774751 16.7553711,12.8505859 C16.3209614,12.6236968 15.9847831,12.3110371 15.7468262,11.9125977 C15.4645982,11.4311499 15.3234863,10.7394251 15.3234863,9.83740234 L15.3234863,5.34667969 C15.3234863,4.89290138 15.4258616,4.5539562 15.6306152,4.32983398 C15.8353689,4.10571177 16.106525,3.99365234 16.4440918,3.99365234 C16.7871925,3.99365234 17.0638824,4.10709522 17.2741699,4.33398438 C17.4844574,4.56087353 17.5895996,4.89843526 17.5895996,5.34667969 L17.5895996,8.97412109 C17.5895996,9.49983987 17.63387,9.94116032 17.7224121,10.2980957 C17.8109542,10.6550311 17.9700509,10.9344879 18.199707,11.1364746 C18.4293631,11.3384613 18.7406393,11.4394531 19.1335449,11.4394531 C19.5153828,11.4394531 19.8750797,11.3260102 20.2126465,11.0991211 C20.5502133,10.8722319 20.7964673,10.5761737 20.951416,10.2109375 C21.0786953,9.88997235 21.142334,9.1871799 21.142334,8.10253906 L21.142334,5.34667969 C21.142334,4.89843526 21.2474762,4.56087353 21.4577637,4.33398438 C21.6680512,4.10709522 21.9419742,3.99365234 22.279541,3.99365234 C22.6171078,3.99365234 22.888264,4.10571177 23.0930176,4.32983398 C23.2977712,4.5539562 23.4001465,4.89290138 23.4001465,5.34667969 L23.4001465,11.9125977 C23.4001465,12.3442404 23.3019216,12.6679677 23.1054688,12.8837891 C22.9090159,13.0996105 22.6558446,13.2075195 22.3459473,13.2075195 C22.0360499,13.2075195 21.7801117,13.0954601 21.578125,12.8713379 C21.3761383,12.6472157 21.2751465,12.3331726 21.2751465,11.9291992 Z M25.657959,11.8295898 L25.657959,2.00146484 C25.657959,1.54768653 25.7589508,1.20459101 25.9609375,0.972167969 C26.1629242,0.739744932 26.4354638,0.623535156 26.7785645,0.623535156 C27.1216651,0.623535156 27.3983551,0.738361482 27.6086426,0.968017578 C27.8189301,1.19767367 27.9240723,1.54215265 27.9240723,2.00146484 L27.9240723,11.8295898 C27.9240723,12.288902 27.8175466,12.633381 27.6044922,12.8630371 C27.3914377,13.0926932 27.1161312,13.2075195 26.7785645,13.2075195 C26.4465315,13.2075195 26.1767589,13.0885429 25.9692383,12.8505859 C25.7617177,12.612629 25.657959,12.2723004 25.657959,11.8295898 Z M30.3894043,4.19287109 L30.6384277,4.19287109 L30.6384277,2.83154297 C30.6384277,2.46630677 30.6481119,2.17993268 30.6674805,1.97241211 C30.6868491,1.76489154 30.7408036,1.58642653 30.8293457,1.43701172 C30.9178878,1.28206303 31.0451652,1.1561691 31.2111816,1.05932617 C31.3771981,0.96248324 31.5625804,0.9140625 31.767334,0.9140625 C32.0550958,0.9140625 32.3151844,1.02197158 32.5476074,1.23779297 C32.7025561,1.3816739 32.800781,1.55737201 32.8422852,1.76489258 C32.8837893,1.97241315 32.904541,2.26708793 32.904541,2.64892578 L32.904541,4.19287109 L33.7346191,4.19287109 C34.0555843,4.19287109 34.3004549,4.26896083 34.4692383,4.42114258 C34.6380217,4.57332433 34.7224121,4.76839074 34.7224121,5.00634766 C34.7224121,5.31071116 34.602052,5.52376241 34.3613281,5.64550781 C34.1206043,5.76725321 33.7761253,5.828125 33.3278809,5.828125 L32.904541,5.828125 L32.904541,9.99511719 C32.904541,10.3492856 32.9169921,10.6218252 32.9418945,10.8127441 C32.966797,11.0036631 33.0332026,11.1586094 33.1411133,11.2775879 C33.249024,11.3965664 33.4247221,11.4560547 33.6682129,11.4560547 C33.8010261,11.4560547 33.9808745,11.432536 34.2077637,11.385498 C34.4346528,11.3384601 34.6117344,11.3149414 34.7390137,11.3149414 C34.9216318,11.3149414 35.0862623,11.3882642 35.2329102,11.5349121 C35.379558,11.68156 35.4528809,11.8627919 35.4528809,12.0786133 C35.4528809,12.4438495 35.2536641,12.7233063 34.8552246,12.9169922 C34.4567851,13.1106781 33.8840369,13.2075195 33.1369629,13.2075195 C32.428626,13.2075195 31.8918475,13.0885429 31.5266113,12.8505859 C31.1613751,12.612629 30.9220383,12.283368 30.8085938,11.862793 C30.6951492,11.4422179 30.6384277,10.8805374 30.6384277,10.1777344 L30.6384277,5.828125 L30.3395996,5.828125 C30.0131006,5.828125 29.7640796,5.75065182 29.5925293,5.59570312 C29.420979,5.44075443 29.3352051,5.24430458 29.3352051,5.00634766 C29.3352051,4.76839074 29.4251293,4.57332433 29.6049805,4.42114258 C29.7848316,4.26896083 30.0463036,4.19287109 30.3894043,4.19287109 Z M38.5490723,5.28027344 L38.5490723,11.8295898 C38.5490723,12.2833682 38.4411632,12.6264637 38.2253418,12.8588867 C38.0095204,13.0913098 37.7355974,13.2075195 37.4035645,13.2075195 C37.0715315,13.2075195 36.8017589,13.0885429 36.5942383,12.8505859 C36.3867177,12.612629 36.282959,12.2723004 36.282959,11.8295898 L36.282959,5.34667969 C36.282959,4.89843526 36.3867177,4.56087353 36.5942383,4.33398438 C36.8017589,4.10709522 37.0715315,3.99365234 37.4035645,3.99365234 C37.7355974,3.99365234 38.0095204,4.10709522 38.2253418,4.33398438 C38.4411632,4.56087353 38.5490723,4.87630006 38.5490723,5.28027344 Z M37.4284668,2.93945312 C37.1130355,2.93945312 36.8432628,2.84261165 36.6191406,2.64892578 C36.3950184,2.45523992 36.282959,2.18131687 36.282959,1.82714844 C36.282959,1.50618329 36.3977853,1.2419444 36.6274414,1.03442383 C36.8570975,0.826903259 37.1241033,0.723144531 37.4284668,0.723144531 C37.7217625,0.723144531 37.9818511,0.817219111 38.2087402,1.00537109 C38.4356294,1.19352308 38.5490723,1.46744612 38.5490723,1.82714844 C38.5490723,2.17578299 38.4383963,2.44832259 38.217041,2.64477539 C37.9956857,2.8412282 37.7328303,2.93945312 37.4284668,2.93945312 Z M48.427002,8.76660156 L48.427002,11.7797852 C48.427002,12.255699 48.3190929,12.612629 48.1032715,12.8505859 C47.8874501,13.0885429 47.6024595,13.2075195 47.248291,13.2075195 C46.9051903,13.2075195 46.627117,13.0885429 46.4140625,12.8505859 C46.201008,12.612629 46.0944824,12.255699 46.0944824,11.7797852 L46.0944824,8.16894531 C46.0944824,7.59895548 46.0751141,7.15625158 46.036377,6.84082031 C45.9976398,6.52538905 45.8924976,6.26668395 45.7209473,6.06469727 C45.5493969,5.86271058 45.2782408,5.76171875 44.9074707,5.76171875 C44.1659305,5.76171875 43.6775728,6.0162735 43.4423828,6.52539062 C43.2071928,7.03450775 43.0895996,7.7649692 43.0895996,8.71679688 L43.0895996,11.7797852 C43.0895996,12.2501651 42.983074,12.6057117 42.7700195,12.8464355 C42.5569651,13.0871594 42.2761248,13.2075195 41.9274902,13.2075195 C41.5843896,13.2075195 41.3035493,13.0871594 41.0849609,12.8464355 C40.8663726,12.6057117 40.7570801,12.2501651 40.7570801,11.7797852 L40.7570801,5.296875 C40.7570801,4.8707661 40.855305,4.54703887 41.0517578,4.32568359 C41.2482106,4.10432832 41.5069157,3.99365234 41.8278809,3.99365234 C42.1377782,3.99365234 42.3964833,4.09741107 42.6040039,4.30493164 C42.8115245,4.51245221 42.9152832,4.7988263 42.9152832,5.1640625 L42.9152832,5.37988281 C43.3081888,4.90950286 43.7287575,4.56364043 44.177002,4.34228516 C44.6252464,4.12092988 45.1232883,4.01025391 45.6711426,4.01025391 C46.2411324,4.01025391 46.7308736,4.12369678 47.1403809,4.35058594 C47.5498881,4.57747509 47.8874498,4.92057062 48.1530762,5.37988281 C48.534914,4.91503674 48.9444151,4.57055776 49.3815918,4.34643555 C49.8187685,4.12231333 50.3029759,4.01025391 50.8342285,4.01025391 C51.4540233,4.01025391 51.9880349,4.13199748 52.4362793,4.37548828 C52.8845237,4.61897908 53.2193186,4.96760841 53.4406738,5.42138672 C53.6343597,5.83089397 53.7312012,6.47558154 53.7312012,7.35546875 L53.7312012,11.7797852 C53.7312012,12.255699 53.6232921,12.612629 53.4074707,12.8505859 C53.1916493,13.0885429 52.9066587,13.2075195 52.5524902,13.2075195 C52.2093896,13.2075195 51.9285493,13.0871594 51.7099609,12.8464355 C51.4913726,12.6057117 51.3820801,12.2501651 51.3820801,11.7797852 L51.3820801,7.96972656 C51.3820801,7.48274496 51.3613283,7.09261214 51.3198242,6.79931641 C51.2783201,6.50602067 51.1662607,6.25976662 50.9836426,6.06054688 C50.8010245,5.86132713 50.5243345,5.76171875 50.1535645,5.76171875 C49.8547348,5.76171875 49.5711276,5.85025953 49.3027344,6.02734375 C49.0343411,6.20442797 48.8254402,6.44238132 48.6760254,6.74121094 C48.5100089,7.12304878 48.427002,7.79817224 48.427002,8.76660156 Z M61.6584473,11.9291992 C61.110593,12.3553081 60.5807317,12.674885 60.0688477,12.8879395 C59.5569636,13.1009939 58.982832,13.2075195 58.3464355,13.2075195 C57.765378,13.2075195 57.254885,13.0926932 56.8149414,12.8630371 C56.3749978,12.633381 56.0360526,12.3221048 55.7980957,11.9291992 C55.5601388,11.5362936 55.4411621,11.1101911 55.4411621,10.6508789 C55.4411621,10.0310841 55.637612,9.50260635 56.0305176,9.06542969 C56.4234232,8.62825302 56.9629686,8.33496168 57.6491699,8.18554688 C57.7930508,8.15234358 58.1499809,8.0776373 58.7199707,7.96142578 C59.2899605,7.84521426 59.7783183,7.73868864 60.1850586,7.6418457 C60.5917989,7.54500277 61.0331194,7.42740955 61.5090332,7.2890625 C61.4813638,6.69140326 61.3610037,6.2528497 61.1479492,5.97338867 C60.9348948,5.69392764 60.4935743,5.55419922 59.8239746,5.55419922 C59.2484509,5.55419922 58.8154311,5.6344393 58.5249023,5.79492188 C58.2343735,5.95540445 57.9853526,6.1961247 57.777832,6.51708984 C57.5703115,6.83805499 57.4236658,7.0497228 57.3378906,7.15209961 C57.2521155,7.25447642 57.0681166,7.30566406 56.7858887,7.30566406 C56.5313301,7.30566406 56.3113616,7.22404053 56.1259766,7.06079102 C55.9405915,6.8975415 55.8479004,6.6886406 55.8479004,6.43408203 C55.8479004,6.03564254 55.9890123,5.64827662 56.2712402,5.27197266 C56.5534682,4.89566869 56.9934052,4.58577596 57.5910645,4.34228516 C58.1887237,4.09879436 58.9330196,3.97705078 59.8239746,3.97705078 C60.8200733,3.97705078 61.6031059,4.09464401 62.1730957,4.32983398 C62.7430855,4.56502396 63.1456694,4.93717193 63.3808594,5.44628906 C63.6160494,5.95540619 63.7336426,6.63052965 63.7336426,7.47167969 C63.7336426,8.00293234 63.7322591,8.45393695 63.7294922,8.82470703 C63.7267252,9.19547711 63.7225749,9.60774513 63.717041,10.0615234 C63.717041,10.4876323 63.787597,10.9317197 63.9287109,11.3937988 C64.0698249,11.855878 64.1403809,12.1533196 64.1403809,12.2861328 C64.1403809,12.5185558 64.0310883,12.7302237 63.8125,12.9211426 C63.5939117,13.1120615 63.3462742,13.2075195 63.0695801,13.2075195 C62.837157,13.2075195 62.6075044,13.098227 62.3806152,12.8796387 C62.1537261,12.6610503 61.9130058,12.3442404 61.6584473,11.9291992 Z M61.5090332,8.65039062 C61.1770003,8.77213603 60.6941763,8.90079685 60.0605469,9.03637695 C59.4269174,9.17195706 58.9883638,9.27156544 58.744873,9.33520508 C58.5013822,9.39884472 58.2689627,9.52335519 58.0476074,9.70874023 C57.8262521,9.89412528 57.7155762,10.1528304 57.7155762,10.4848633 C57.7155762,10.827964 57.8456204,11.1198718 58.1057129,11.3605957 C58.3658053,11.6013196 58.706134,11.7216797 59.126709,11.7216797 C59.5749534,11.7216797 59.9886049,11.6234548 60.3676758,11.427002 C60.7467467,11.2305491 61.0248201,10.9773779 61.2019043,10.6674805 C61.4066579,10.3243798 61.5090332,9.75993231 61.5090332,8.97412109 L61.5090332,8.65039062 Z M73.3293457,10.2441406 C73.3293457,10.8694693 73.1771662,11.4048643 72.8728027,11.8503418 C72.5684392,12.2958193 72.1188181,12.633381 71.5239258,12.8630371 C70.9290335,13.0926932 70.2054893,13.2075195 69.3532715,13.2075195 C68.5397909,13.2075195 67.8425322,13.0830091 67.2614746,12.8339844 C66.680417,12.5849597 66.2515476,12.2736835 65.9748535,11.9001465 C65.6981594,11.5266095 65.5598145,11.1516946 65.5598145,10.7753906 C65.5598145,10.5263659 65.6483552,10.3133147 65.8254395,10.1362305 C66.0025237,9.95914625 66.2266425,9.87060547 66.4978027,9.87060547 C66.7357597,9.87060547 66.918375,9.92871036 67.0456543,10.0449219 C67.1729336,10.1611334 67.2946772,10.3243805 67.4108887,10.534668 C67.6433117,10.9386413 67.9213851,11.2402334 68.2451172,11.4394531 C68.5688493,11.6386729 69.0101697,11.7382812 69.5690918,11.7382812 C70.0228701,11.7382812 70.3950181,11.6372894 70.6855469,11.4353027 C70.9760757,11.233316 71.1213379,11.0022799 71.1213379,10.7421875 C71.1213379,10.343748 70.9705419,10.0532236 70.6689453,9.87060547 C70.3673488,9.68798737 69.8706903,9.51367271 69.1789551,9.34765625 C68.3986777,9.15397039 67.7636743,8.95060328 67.2739258,8.73754883 C66.7841772,8.52449438 66.392661,8.24365409 66.0993652,7.89501953 C65.8060695,7.54638498 65.6594238,7.11751557 65.6594238,6.60839844 C65.6594238,6.15462013 65.7950019,5.72575072 66.0661621,5.32177734 C66.3373223,4.91780397 66.7371393,4.59546019 67.265625,4.35473633 C67.7941107,4.11401247 68.431881,3.99365234 69.1789551,3.99365234 C69.7655466,3.99365234 70.2926409,4.05452413 70.7602539,4.17626953 C71.2278669,4.29801493 71.6179997,4.461262 71.9306641,4.66601562 C72.2433284,4.87076925 72.4812817,5.097655 72.6445312,5.34667969 C72.8077808,5.59570437 72.8894043,5.83919152 72.8894043,6.07714844 C72.8894043,6.33724088 72.802247,6.55029214 72.6279297,6.71630859 C72.4536124,6.88232505 72.2059749,6.96533203 71.8850098,6.96533203 C71.6525867,6.96533203 71.4547534,6.89892645 71.2915039,6.76611328 C71.1282544,6.63330012 70.9414887,6.43408336 70.7312012,6.16845703 C70.5596508,5.94710176 70.3576672,5.7700202 70.1252441,5.63720703 C69.8928211,5.50439387 69.5773946,5.43798828 69.1789551,5.43798828 C68.7694478,5.43798828 68.4291192,5.52514561 68.157959,5.69946289 C67.8867988,5.87378017 67.7512207,6.09098177 67.7512207,6.35107422 C67.7512207,6.58903114 67.8508291,6.78409755 68.0500488,6.9362793 C68.2492686,7.08846105 68.5176578,7.21435497 68.8552246,7.31396484 C69.1927914,7.41357472 69.6576305,7.53531829 70.2497559,7.67919922 C70.9525589,7.85074956 71.5266905,8.05550011 71.972168,8.29345703 C72.4176455,8.53141395 72.7552072,8.81225424 72.9848633,9.13598633 C73.2145194,9.45971842 73.3293457,9.82909949 73.3293457,10.2441406 Z M80.8913574,12.1699219 L78.8908691,8.8828125 L77.6623535,10.0449219 L77.6623535,11.8461914 C77.6623535,12.2833681 77.5475272,12.6195464 77.3178711,12.8547363 C77.088215,13.0899263 76.8239761,13.2075195 76.5251465,13.2075195 C76.1765119,13.2075195 75.9025889,13.0913098 75.7033691,12.8588867 C75.5041494,12.6264637 75.404541,12.2833682 75.404541,11.8295898 L75.404541,2.16748047 C75.404541,1.66389722 75.5013825,1.28068165 75.6950684,1.01782227 C75.8887542,0.754962878 76.1654442,0.623535156 76.5251465,0.623535156 C76.873781,0.623535156 77.150471,0.742511831 77.3552246,0.98046875 C77.5599782,1.21842567 77.6623535,1.56982189 77.6623535,2.03466797 L77.6623535,7.52978516 L80.2106934,4.85693359 C80.5261246,4.52490068 80.7668449,4.29801493 80.9328613,4.17626953 C81.0988778,4.05452413 81.3008614,3.99365234 81.5388184,3.99365234 C81.8210463,3.99365234 82.0562328,4.08357657 82.2443848,4.26342773 C82.4325367,4.44327889 82.5266113,4.6687812 82.5266113,4.93994141 C82.5266113,5.27197432 82.2194855,5.71467822 81.6052246,6.26806641 L80.4016113,7.37207031 L82.7258301,11.0244141 C82.8973804,11.2955743 83.0205074,11.5017083 83.0952148,11.6428223 C83.1699222,11.7839363 83.2072754,11.9181309 83.2072754,12.0454102 C83.2072754,12.4051125 83.1090505,12.6887197 82.9125977,12.8962402 C82.7161449,13.1037608 82.4574398,13.2075195 82.1364746,13.2075195 C81.8597805,13.2075195 81.6467293,13.1328132 81.4973145,12.9833984 C81.3478996,12.8339836 81.145916,12.5628275 80.8913574,12.1699219 Z" id="multimask"></path>
            </g>
        </g>
    </g>
</svg>