<svg xmlns="http://www.w3.org/2000/svg" xmlns:xlink="http://www.w3.org/1999/xlink" height="65" version="1.1" width="40"><rect id="backgroundrect" width="100%" height="100%" x="0" y="0" fill="none" stroke="none" class="" style=""/><title/><desc/><defs/><g class="currentLayer" style=""><title>Layer 1</title><g fill="none" fill-rule="evenodd" id="Classic" stroke="none" stroke-width="1" class=""><g fill="#333333" id="EOS"><g id="svg_1"><path d="M20.285569395462144,0.3267402076726154 L8.26369059924766,20.982816707225805 L2.291574671471279,52.05711234209117 L20.15483478269776,64.82500826710027 L20.284080948465498,64.91782414085874 L37.982868372009825,52.34844285690416 L32.02886191119514,20.982816707225805 L20.285569395462144,0.3267402076726154 zM8.81044409536517,20.982816707225805 L20.035015376651636,1.7877854775397348 L20.035015376651636,15.97017242663933 L11.896971718474688,32.45129014730756 L8.81044409536517,20.982816707225805 zM20.53116193140932,15.971929177967855 L20.53116193140932,1.8062315405824199 L31.484837184691585,20.982816707225805 L28.492329333697807,32.36462278965992 L20.53116193140932,15.971929177967855 zM12.099647586916243,33.20406516884444 L20.281352136097325,16.634816269858046 L28.29163803274899,33.12852413002213 L23.428657726540806,51.6234833801217 L17.057391910115783,51.6234833801217 L12.099647586916243,33.20406516884444 zM8.558649711183342,22.075819107043017 L11.54793262931288,33.15809624948882 L3.172234784254648,50.12086112977438 L8.558649711183342,22.075819107043017 zM28.824499406778035,33.048591149801254 L31.700164767095906,22.10041387795127 L37.091789316231115,50.07137906099419 L28.824499406778035,33.048591149801254 zM28.623808105829017,33.812492490163464 L37.27362705498253,51.6234833801217 L23.945146204983963,51.6234833801217 L28.623808105829017,33.812492490163464 zM11.751104639627616,33.910578592676615 L16.5289958556996,51.6234833801217 L3.0047853265666182,51.6234833801217 L11.751104639627616,33.910578592676615 zM23.791340941674537,52.20907270709192 L36.82560660395613,52.20907270709192 L20.715976521399828,63.916173617513195 L23.791340941674537,52.20907270709192 zM17.214670358931397,52.20907270709192 L23.274852313591484,52.20907270709192 L20.28035985235096,63.59790584530192 L17.214670358931397,52.20907270709192 zM3.461488217619233,52.20907270709192 L16.68701852801354,52.20907270709192 L19.8459835486736,63.919687271555574 L3.461488217619233,52.20907270709192 z" id="Logo"/></g></g></g></g></svg>